<?xml version="1.0" encoding="UTF-8"?>
<svg width="24px" height="24px" viewBox="0 0 24 24" version="1.1" xmlns="http://www.w3.org/2000/svg" xmlns:xlink="http://www.w3.org/1999/xlink">
    <defs>
        <rect id="path-1" x="0" y="0" width="24" height="24"></rect>
        <polygon id="path-3" points="0 0 24 0 24 24 0 24"></polygon>
    </defs>
    <g id="V2.1" stroke="none" stroke-width="1" fill="none" fill-rule="evenodd">
        <g id="非-AI-创作认证" transform="translate(-1376.000000, -30.000000)">
            <g id="属性-1=Normal" transform="translate(1284.000000, 30.000000)">
                <g id="关闭" transform="translate(92.000000, 0.000000)">
                    <mask id="mask-2" fill="white">
                        <use xlink:href="#path-1"></use>
                    </mask>
                    <g id="路径"></g>
                    <mask id="mask-4" fill="white">
                        <use xlink:href="#path-3"></use>
                    </mask>
                    <g id="路径"></g>
                    <g id="编组" mask="url(#mask-4)" fill="currentColor">
                        <g transform="translate(5.000000, 5.000000)">
                            <path d="M14.4256718,8.23548566 L-0.425671795,8.23728691 C-1.10842627,8.23736972 -1.66197525,7.68395499 -1.66205806,7.00120052 C-1.66205807,7.00115054 -1.66205807,7.00110056 -1.66205807,7.00105058 C-1.66205807,6.31818904 -1.10853334,5.76459717 -0.425671795,5.76451434 L14.4256718,5.76271309 C15.1084263,5.76263028 15.6619753,6.31604501 15.6620581,6.99879948 C15.6620581,6.99884946 15.6620581,6.99889944 15.6620581,6.99894942 C15.6620581,7.68181096 15.1085333,8.23540283 14.4256718,8.23548566 Z" id="路径备份" transform="translate(7.000000, 7.000000) rotate(45.000000) translate(-7.000000, -7.000000) "></path>
                            <path d="M14.4256718,8.23548566 L-0.425671795,8.23728691 C-1.10842627,8.23736972 -1.66197525,7.68395499 -1.66205806,7.00120052 C-1.66205807,7.00115054 -1.66205807,7.00110056 -1.66205807,7.00105058 C-1.66205807,6.31818904 -1.10853334,5.76459717 -0.425671795,5.76451434 L14.4256718,5.76271309 C15.1084263,5.76263028 15.6619753,6.31604501 15.6620581,6.99879948 C15.6620581,6.99884946 15.6620581,6.99889944 15.6620581,6.99894942 C15.6620581,7.68181096 15.1085333,8.23540283 14.4256718,8.23548566 Z" id="路径备份-2" transform="translate(7.000000, 7.000000) scale(-1, 1) rotate(45.000000) translate(-7.000000, -7.000000) "></path>
                        </g>
                    </g>
                </g>
            </g>
        </g>
    </g>
</svg>